Coordinates
version=1
nRows=15
nColumns=33
inDegrees=yes

Units are S.I. units (second, meters, Newtons, ...)
Angles are in degrees.

endheader
time	ground_thorax_rot_x	ground_thorax_rot_y	ground_thorax_rot_z	ground_thorax_tx	ground_thorax_ty	ground_thorax_tz	clav_prot_r	clav_elev_r	scapula_abduction_r	scapula_elevation_r	scapula_upward_rot_r	scapula_winging_r	shoulder_elv_r	plane_of_elev_r	axial_rot_r	elbow_flexion_r	pro_sup_r	wrist_flex_r	wrist_dev_r	clav_prot_l	clav_elev_l	scapula_abduction_l	scapula_elevation_l	scapula_upward_rot_l	scapula_winging_l	shoulder_elv_l	plane_of_elev_l	axial_rot_l	elbow_flexion_l	pro_sup_l	wrist_flex_l	wrist_dev_l	
2.3600	0.925381	6.114092	-1.752091	-0.163314	1.005149	0.005207	-18.843346	-14.841969	-24.911249	-9.613566	6.053201	5.931418	48.342764	-27.106653	32.012146	67.123333	9.283211	-1.345104	23.342464	1.734776	-7.956085	-4.348705	-2.847759	-10.259874	-1.024547	51.318804	-23.089775	-9.613824	71.904026	5.617754	18.353052	8.014664	
2.3700	0.912140	6.203238	-1.729650	-0.163356	1.005035	0.005153	-18.660500	-15.075507	-24.637956	-9.785760	5.940540	6.090105	47.878017	-26.226656	31.554397	65.294128	9.126461	-1.823899	23.941720	1.947010	-8.214403	-4.670129	-2.724711	-10.528084	-1.019683	51.551830	-21.855326	-9.488143	70.236034	5.830536	18.898513	8.414983	
2.3800	0.891070	6.302585	-1.701633	-0.163390	1.004896	0.005098	-18.482047	-15.291826	-24.372489	-9.943390	5.831428	6.237722	47.407574	-25.329330	31.131777	63.401533	8.960190	-2.261135	24.517875	2.176618	-8.452677	-5.021192	-2.618234	-10.790506	-0.997659	51.774036	-20.598034	-9.378009	68.477222	6.090829	19.441678	8.749209	
2.3900	0.860384	6.413835	-1.662104	-0.163433	1.004697	0.005039	-18.308980	-15.465893	-24.118707	-10.063036	5.727147	6.359107	46.916480	-24.384548	30.742323	61.435811	8.785694	-2.639530	25.084598	2.426561	-8.651734	-5.394745	-2.561651	-11.084158	-0.958315	52.012964	-19.274456	-9.289584	66.626590	6.405391	20.020321	9.007664	
2.4000	0.831028	6.527748	-1.619764	-0.163453	1.004517	0.004984	-18.138143	-15.636684	-23.867923	-10.180843	5.625379	6.477851	46.442141	-23.442967	30.396390	59.436617	8.647625	-2.946820	25.573132	2.683378	-8.858095	-5.780947	-2.497380	-11.374871	-0.915592	52.245599	-17.953595	-9.213065	64.686909	6.768023	20.570313	9.188663	
2.4100	0.800037	6.649635	-1.580619	-0.163463	1.004305	0.004922	-17.974511	-15.775561	-23.630867	-10.270312	5.527776	6.576617	45.959313	-22.459625	30.075644	57.386467	8.539767	-3.163059	26.005200	2.949749	-9.041879	-6.174253	-2.464451	-11.689662	-0.864744	52.488349	-16.573429	-9.149432	62.655325	7.193506	21.120962	9.268086	
2.4200	0.782159	6.765084	-1.549527	-0.163430	1.004159	0.004864	-17.806893	-15.937645	-23.383250	-10.382865	5.432797	6.688724	45.528624	-21.518630	29.805204	55.346039	8.517230	-3.292452	26.302663	3.211977	-9.263704	-6.571477	-2.382667	-11.971635	-0.820140	52.703345	-15.246976	-9.101342	60.551855	7.666242	21.580873	9.259512	
2.4300	0.774058	6.878286	-1.542288	-0.163357	1.004040	0.004797	-17.639508	-16.107628	-23.133130	-10.504524	5.341733	6.804755	45.129224	-20.586358	29.559746	53.303234	8.574126	-3.322429	26.476487	3.471162	-9.499021	-6.972322	-2.275241	-12.221989	-0.774487	52.888461	-13.930890	-9.067490	58.379252	8.196055	21.951755	9.139264	
2.4400	0.777956	6.976367	-1.542691	-0.163236	1.004000	0.004729	-17.459095	-16.314834	-22.857218	-10.661311	5.250713	6.943003	44.791820	-19.729262	29.354151	51.305981	8.725322	-3.298628	26.522183	3.722725	-9.773572	-7.379959	-2.102934	-12.404187	-0.731835	53.016744	-12.713382	-9.063772	56.173344	8.754197	22.191401	8.957731	
2.4500	0.778185	7.074647	-1.549890	-0.163098	1.003929	0.004646	-17.279364	-16.497624	-22.585111	-10.794958	5.159850	7.065733	44.449188	-18.859852	29.147448	49.305820	8.945924	-3.183467	26.484000	3.974575	-10.008648	-7.792045	-1.955147	-12.557591	-0.671404	53.095966	-11.467557	-9.084162	53.911333	9.377294	22.337886	8.649666	
2.4600	0.780439	7.159212	-1.540529	-0.162944	1.003885	0.004559	-17.085748	-16.687421	-22.289077	-10.934722	5.068998	7.191880	44.145787	-18.052961	28.979509	47.357747	9.251707	-3.024949	26.354236	4.226839	-10.238870	-8.216979	-1.790364	-12.659589	-0.599426	53.116476	-10.292820	-9.150183	51.637541	10.039063	22.369568	8.270959	
2.4700	0.776329	7.246051	-1.535462	-0.162776	1.003805	0.004460	-16.897921	-16.847614	-22.007241	-11.045699	4.975719	7.299735	43.831583	-17.232964	28.799378	45.427529	9.644440	-2.777698	26.134086	4.480311	-10.418249	-8.646404	-1.662324	-12.737016	-0.506229	53.084530	-9.081914	-9.230466	49.323987	10.789944	22.299303	7.745190	
2.4800	0.775021	7.320621	-1.523991	-0.162588	1.003757	0.004361	-16.702543	-17.019095	-21.711363	-11.167609	4.883179	7.413969	43.556540	-16.472612	28.646359	43.571951	10.119540	-2.516753	25.844134	4.735285	-10.598227	-9.087589	-1.516859	-12.773932	-0.405132	53.007929	-7.941123	-9.337708	47.034556	11.584740	22.140388	7.171122	
2.4900	0.769865	7.400599	-1.527921	-0.162371	1.003682	0.004253	-16.522799	-17.164192	-21.446283	-11.264065	4.787330	7.512511	43.270953	-15.693155	28.464547	41.756792	10.696322	-2.179783	25.469048	4.988021	-10.733394	-9.527014	-1.404000	-12.789887	-0.287359	52.881648	-6.761387	-9.431430	44.729911	12.482192	21.887614	6.460663	
2.5000	0.772161	7.468883	-1.547988	-0.162118	1.003656	0.004152	-16.343134	-17.331681	-21.177494	-11.383540	4.694893	7.624433	43.028328	-14.967335	28.292366	40.039263	11.346409	-1.864200	25.056971	5.237824	-10.887427	-9.970681	-1.258010	-12.768251	-0.171085	52.725825	-5.658358	-9.520748	42.492557	13.406250	21.580362	5.758428	
